<svg version="1.1" xmlns="http://www.w3.org/2000/svg" xmlns:xlink="http://www.w3.org/1999/xlink" width="512.000000pt" height="512.000000pt" viewBox="0,0,256,256"><g fill="#ffffff" fill-rule="nonzero" stroke="none" stroke-width="1" stroke-linecap="butt" stroke-linejoin="miter" stroke-miterlimit="10" stroke-dasharray="" stroke-dashoffset="0" font-family="none" font-weight="none" font-size="none" text-anchor="none" style="mix-blend-mode: normal"><g transform="translate(0.07148,0.0035) scale(0.5,0.5)"><g transform="translate(0,512) scale(0.1,-0.1)"><path d="M70,4818c-92,-62 -90,-182 4,-252c26,-20 42,-21 351,-24c289,-3 324,-5 338,-20c11,-12 629,-2276 692,-2534c7,-26 5,-28 -23,-28c-47,0 -147,-35 -201,-69c-310,-199 -284,-650 47,-814l85,-42l165,-3c187,-4 169,8 138,-102c-32,-111 -16,-249 42,-368c36,-76 150,-190 223,-226c170,-82 357,-75 514,19c109,66 185,160 226,282c38,111 31,265 -17,381c-5,9 93,12 466,12h472l-7,-22c-28,-91 -36,-133 -36,-208c0,-145 50,-266 153,-368c101,-102 223,-152 368,-152c237,0 438,152 505,383c28,97 20,245 -19,337c-14,34 -13,35 15,52c96,59 90,202 -11,255l-43,23h-1539c-1511,0 -1539,0 -1577,20c-114,57 -112,239 2,293c32,16 158,17 1515,17c959,0 1498,4 1533,10c115,22 219,101 268,205c12,26 108,419 213,873c209,910 205,882 153,987c-28,59 -73,103 -138,137c-42,23 -46,23 -592,29c-302,4 -1061,8 -1685,9c-624,1 -1200,5 -1280,9l-145,6l-91,337c-49,185 -99,355 -109,379c-28,60 -105,135 -172,167l-58,27l-355,3l-356,3zM1774,3610h232l42,-322c23,-178 42,-331 42,-340c0,-17 -20,-18 -288,-18h-288l-88,323c-48,178 -90,334 -93,347l-6,23l108,-6c59,-4 212,-7 339,-7zM2970,3270v-340h-285h-284l-6,33c-5,32 -85,631 -85,642c0,3 149,5 330,5h330zM3930,3593c-1,-10 -20,-162 -43,-338l-43,-320l-287,-3l-287,-2v340v340h330c308,0 330,-1 330,-17zM4815,3578c-3,-13 -37,-160 -75,-327c-39,-167 -73,-307 -76,-312c-3,-5 -120,-9 -260,-9c-196,0 -254,3 -254,13c0,6 19,157 42,335l42,322h293h293zM2178,2313c23,-175 42,-326 42,-335c0,-17 -16,-18 -194,-18c-107,0 -206,4 -220,10c-15,5 -33,24 -41,42c-14,32 -165,586 -165,607c0,8 81,11 268,11h268zM2970,2295v-335h-220h-220l-4,23c-5,21 -86,628 -86,641c0,3 119,6 265,6h265zM3800,2615c0,-23 -80,-628 -85,-642c-3,-10 -57,-13 -225,-13h-220v335v335h265c231,0 265,-2 265,-15zM4590,2617c0,-21 -129,-579 -141,-608c-6,-15 -22,-31 -35,-38c-28,-12 -394,-16 -394,-4c0,16 82,639 85,651c6,18 485,18 485,-1zM2280,997c132,-67 157,-253 47,-355c-54,-49 -102,-65 -178,-60c-79,6 -134,43 -171,117c-102,200 100,399 302,298zM4125,1019c92,-23 166,-118 166,-214c0,-130 -92,-224 -219,-225c-131,0 -221,91 -222,223c0,71 24,121 81,170c59,51 118,65 194,46z"></path></g></g></g></svg>