<?xml version="1.0" standalone="no"?>
<!DOCTYPE svg PUBLIC "-//W3C//DTD SVG 20010904//EN"
 "http://www.w3.org/TR/2001/REC-SVG-20010904/DTD/svg10.dtd">
<svg version="1.0" xmlns="http://www.w3.org/2000/svg"
 width="512.000000pt" height="512.000000pt" viewBox="0 0 512.000000 512.000000"
 preserveAspectRatio="xMidYMid meet">

<g transform="translate(0.000000,512.000000) scale(0.100000,-0.100000)"
fill="#000000" stroke="none">
<path d="M2288 5099 c-23 -12 -46 -35 -58 -59 -20 -39 -20 -57 -20 -1170 0
-1114 0 -1131 20 -1170 13 -26 34 -47 60 -60 39 -20 56 -20 1170 -20 1114 0
1131 0 1170 20 26 13 47 34 60 60 20 39 20 56 20 1170 0 1114 0 1131 -20 1170
-13 26 -34 47 -60 60 -39 20 -56 20 -1172 20 -1108 -1 -1134 -1 -1170 -21z
m722 -519 c0 -201 3 -246 16 -273 22 -44 321 -344 366 -368 21 -10 51 -19 68
-19 17 0 47 9 68 19 45 24 344 324 366 368 13 27 16 72 16 273 l0 240 250 0
250 0 0 -950 0 -950 -950 0 -950 0 0 950 0 950 250 0 250 0 0 -240z m600 47
l0 -193 -75 -74 -75 -74 -75 74 -75 74 0 193 0 193 150 0 150 0 0 -193z"/>
<path d="M1526 2339 c-129 -10 -265 -45 -465 -119 -89 -33 -167 -60 -174 -60
-7 1 -21 19 -32 42 -28 60 -65 83 -128 83 -41 0 -116 -24 -347 -109 -162 -59
-306 -118 -319 -129 -53 -48 -51 -17 -51 -1007 0 -903 0 -922 20 -960 13 -26
34 -47 60 -60 37 -19 58 -20 393 -20 l353 0 304 111 c329 119 363 138 376 206
4 21 12 33 23 33 9 0 293 -38 631 -85 338 -47 653 -88 700 -92 99 -6 216 12
309 50 33 13 437 222 898 463 753 395 843 445 894 494 182 178 184 463 3 646
-107 109 -269 156 -421 124 -26 -6 -259 -109 -518 -230 l-469 -219 -13 50
c-37 143 -161 275 -297 314 -28 8 -154 33 -281 55 -337 59 -405 83 -630 222
-252 155 -523 220 -819 197z m317 -316 c136 -26 252 -75 396 -168 183 -119
326 -167 679 -230 139 -24 261 -49 271 -55 32 -17 70 -69 77 -106 9 -47 -19
-118 -58 -145 -16 -12 -49 -24 -71 -26 -26 -3 -224 28 -525 81 -265 47 -494
86 -508 86 -45 0 -102 -40 -125 -87 -33 -69 -15 -135 52 -186 31 -22 999 -197
1095 -197 79 0 175 30 239 74 28 19 320 161 651 315 629 294 641 299 703 266
99 -51 119 -181 38 -252 -18 -16 -404 -223 -857 -460 -587 -308 -844 -437
-890 -449 -43 -11 -86 -15 -130 -11 -111 9 -1454 197 -1461 205 -6 7 -425
1153 -431 1180 -3 15 299 131 412 159 141 34 291 36 443 6z m-933 -832 c148
-409 269 -745 268 -746 -2 -1 -91 -34 -198 -74 l-195 -71 -238 0 -237 0 2 766
3 766 155 57 c85 32 158 55 162 52 4 -3 129 -341 278 -750z"/>
</g>
</svg>
