<svg version="1.1" xmlns="http://www.w3.org/2000/svg" xmlns:xlink="http://www.w3.org/1999/xlink" width="512.000000pt" height="512.000000pt" viewBox="0,0,256,256"><g fill="#ffffff" fill-rule="nonzero" stroke="none" stroke-width="1" stroke-linecap="butt" stroke-linejoin="miter" stroke-miterlimit="10" stroke-dasharray="" stroke-dashoffset="0" font-family="none" font-weight="none" font-size="none" text-anchor="none" style="mix-blend-mode: normal"><g transform="translate(0.07558,0) scale(0.5,0.5)"><g transform="translate(0,512) scale(0.1,-0.1)"><path d="M1465,4594c-423,-245 -899,-520 -1056,-611c-201,-116 -290,-173 -298,-190c-15,-33 -16,-2432 0,-2466c6,-12 18,-28 27,-34c169,-105 2107,-1213 2123,-1213c12,0 170,86 353,191c182,106 452,262 599,347l268,155l37,-35c61,-58 131,-107 211,-148c444,-223 976,-43 1196,404c165,334 106,723 -149,993c-86,92 -186,163 -289,208l-67,29v773c0,528 -3,780 -11,796c-13,29 79,-26 -824,495c-423,244 -890,514 -1036,598c-148,86 -277,154 -290,154c-13,-1 -370,-201 -794,-446zM3222,4313c521,-302 948,-550 948,-553c0,-10 -555,-325 -570,-324c-14,0 -1885,1075 -1903,1093c-9,9 538,330 562,331c8,0 441,-246 963,-547zM2465,3898c506,-293 932,-539 948,-548l27,-17l-221,-127l-221,-127l-541,312c-298,172 -722,417 -942,544c-220,127 -408,236 -417,241c-15,8 23,33 200,136c119,70 224,125 232,122c8,-3 428,-244 935,-536zM1875,3542c523,-302 949,-552 948,-557c-2,-11 -544,-325 -562,-325c-7,0 -412,230 -900,512c-487,281 -914,528 -948,547c-35,20 -63,38 -63,41c0,6 561,330 570,330c3,0 433,-247 955,-548zM1278,3035l902,-520v-1108v-1109l-33,20c-17,11 -183,106 -367,212c-184,107 -426,245 -536,309c-111,64 -377,217 -592,341l-391,225l-1,1108v1108l59,-33c32,-18 464,-267 959,-553zM4260,2945v-675h-114c-63,0 -148,-6 -189,-14c-282,-54 -534,-258 -646,-523c-54,-127 -65,-185 -65,-348c0,-176 18,-259 89,-401l43,-85l-22,-13c-11,-8 -241,-141 -511,-296c-269,-155 -493,-284 -497,-287c-5,-2 -8,494 -8,1104v1108l283,163c156,89 287,162 290,162c4,0 7,-187 7,-415v-416l25,-24c28,-29 54,-31 98,-8c117,60 605,348 620,365c16,19 17,57 17,483v462l288,166c158,92 288,167 290,167c1,0 2,-304 2,-675zM3520,2812v-378l-220,-126l-220,-127l2,381l3,381l210,123c116,67 213,123 218,123c4,1 7,-169 7,-377zM4305,2090c214,-55 387,-196 481,-395c53,-111 68,-184 68,-320c0,-108 -4,-129 -31,-210c-44,-128 -94,-208 -187,-300c-202,-200 -490,-263 -759,-164c-168,61 -316,192 -397,349c-58,114 -75,192 -74,340c0,118 4,145 27,215c64,193 211,358 391,441c142,65 331,82 481,44z"></path><path d="M2925,1319c-285,-163 -366,-212 -375,-229c-6,-10 -10,-88 -10,-174c0,-148 1,-156 23,-182c16,-18 34,-27 54,-27c35,0 468,245 483,273c6,10 10,93 10,184v165l-26,20c-15,12 -36,21 -48,21c-12,0 -62,-23 -111,-51zM2950,1108v-43l-119,-67c-65,-38 -121,-68 -125,-68c-3,0 -6,17 -6,38v38l123,71c67,39 123,72 125,72c1,1 2,-18 2,-41z"></path><path d="M4450,1818c-40,-9 -65,-30 -237,-201l-193,-191l-83,81c-63,62 -93,84 -127,93c-127,34 -250,-59 -250,-190c0,-28 6,-65 14,-83c8,-18 90,-107 182,-199c144,-142 176,-168 214,-178c50,-14 93,-9 145,16c50,23 542,527 566,579c69,149 -66,308 -231,273zM4538,1631c3,-19 -42,-69 -249,-277c-140,-140 -260,-254 -268,-254c-24,0 -301,281 -301,305c0,24 18,45 38,45c8,0 65,-49 127,-110c62,-61 121,-110 131,-110c36,0 81,39 269,233c171,177 193,197 220,194c23,-1 31,-7 33,-26z"></path></g></g></g></svg>