<svg version="1.1" xmlns="http://www.w3.org/2000/svg" xmlns:xlink="http://www.w3.org/1999/xlink" width="512.000000pt" height="512.000000pt" viewBox="0,0,256,256"><g fill="#fffefe" fill-rule="nonzero" stroke="none" stroke-width="1" stroke-linecap="butt" stroke-linejoin="miter" stroke-miterlimit="10" stroke-dasharray="" stroke-dashoffset="0" font-family="none" font-weight="none" font-size="none" text-anchor="none" style="mix-blend-mode: normal"><g transform="translate(0.03446,0) scale(0.5,0.5)"><g transform="translate(0,512) scale(0.1,-0.1)"><path d="M2288,5099c-23,-12 -46,-35 -58,-59c-20,-39 -20,-57 -20,-1170c0,-1114 0,-1131 20,-1170c13,-26 34,-47 60,-60c39,-20 56,-20 1170,-20c1114,0 1131,0 1170,20c26,13 47,34 60,60c20,39 20,56 20,1170c0,1114 0,1131 -20,1170c-13,26 -34,47 -60,60c-39,20 -56,20 -1172,20c-1108,-1 -1134,-1 -1170,-21zM3010,4580c0,-201 3,-246 16,-273c22,-44 321,-344 366,-368c21,-10 51,-19 68,-19c17,0 47,9 68,19c45,24 344,324 366,368c13,27 16,72 16,273v240h250h250v-950v-950h-950h-950v950v950h250h250zM3610,4627v-193l-75,-74l-75,-74l-75,74l-75,74v193v193h150h150z"></path><path d="M1526,2339c-129,-10 -265,-45 -465,-119c-89,-33 -167,-60 -174,-60c-7,1 -21,19 -32,42c-28,60 -65,83 -128,83c-41,0 -116,-24 -347,-109c-162,-59 -306,-118 -319,-129c-53,-48 -51,-17 -51,-1007c0,-903 0,-922 20,-960c13,-26 34,-47 60,-60c37,-19 58,-20 393,-20h353l304,111c329,119 363,138 376,206c4,21 12,33 23,33c9,0 293,-38 631,-85c338,-47 653,-88 700,-92c99,-6 216,12 309,50c33,13 437,222 898,463c753,395 843,445 894,494c182,178 184,463 3,646c-107,109 -269,156 -421,124c-26,-6 -259,-109 -518,-230l-469,-219l-13,50c-37,143 -161,275 -297,314c-28,8 -154,33 -281,55c-337,59 -405,83 -630,222c-252,155 -523,220 -819,197zM1843,2023c136,-26 252,-75 396,-168c183,-119 326,-167 679,-230c139,-24 261,-49 271,-55c32,-17 70,-69 77,-106c9,-47 -19,-118 -58,-145c-16,-12 -49,-24 -71,-26c-26,-3 -224,28 -525,81c-265,47 -494,86 -508,86c-45,0 -102,-40 -125,-87c-33,-69 -15,-135 52,-186c31,-22 999,-197 1095,-197c79,0 175,30 239,74c28,19 320,161 651,315c629,294 641,299 703,266c99,-51 119,-181 38,-252c-18,-16 -404,-223 -857,-460c-587,-308 -844,-437 -890,-449c-43,-11 -86,-15 -130,-11c-111,9 -1454,197 -1461,205c-6,7 -425,1153 -431,1180c-3,15 299,131 412,159c141,34 291,36 443,6zM910,1191c148,-409 269,-745 268,-746c-2,-1 -91,-34 -198,-74l-195,-71h-238h-237l2,766l3,766l155,57c85,32 158,55 162,52c4,-3 129,-341 278,-750z"></path></g></g></g></svg>